<?xml version="1.0" encoding="UTF-8"?>
<svg id="Layer_2" data-name="Layer 2" xmlns="http://www.w3.org/2000/svg" viewBox="0 0 1446.8 887.6">
  <defs>
    <style>
      .cls-1, .cls-2 {
        fill: #fff;
      }

      .cls-3 {
        stroke: #fff;
      }

      .cls-3, .cls-2 {
        stroke-miterlimit: 10;
        stroke-width: 5px;
      }

      .cls-4 {
        fill: none;
      }

      .cls-2 {
        stroke: #000;
      }
    </style>
  </defs>
  <g id="Layer_1-2" data-name="Layer 1">
    <polygon id="Overlay" points="0 443.8 723.4 0 1446.8 443.8 723.4 887.6 0 443.8"/>
    <polygon id="White_Body" data-name="White Body" class="cls-1" points="11.8 443.8 723.4 880.24 1435 443.8 723.4 156.55 723.8 739.36 11.8 443.8"/>
    <polygon id="Black_Body" data-name="Black Body" points="723.4 156.55 1435 443.8 723.4 7.36 11.8 443.8 723.8 739.36 723.4 156.55"/>
    <g id="White_Lines" data-name="White Lines">
      <polygon class="cls-4" points="879.73 219.65 902.21 228.73 913.41 217.53 1066.07 217.53 1078.31 225.04 1034.2 197.99 901.4 197.99 879.73 219.65"/>
      <polygon class="cls-4" points="704.55 722.82 704.55 702.82 723.77 702.82 723.76 686.82 597.22 686.82 723.8 739.36 723.79 722.82 704.55 722.82"/>
      <polygon class="cls-4" points="745.91 52.79 765.51 33.19 723.4 7.36 619.66 70.99 649.33 52.79 745.91 52.79"/>
      <path class="cls-4" d="M680.68,514.11h20v152.71h23.08l-.28-406.71h-2.92v-20h2.91l-.06-83.56,136.18,54.97,33.53-33.53h108.48L783.04,43.94l-28.85,28.85h-137.47l-101.68,62.36v18.09l-28.25,28.25h-31.71l-56.89,56.89-14.14-14.14,22.63-22.63,65.42-40.12h6.42l10.17-10.18L11.8,443.8l280.75,116.54v-35.73h20v44.04l236.49,98.17h131.63v-152.71ZM91.48,455.04l88.93-88.93h73.14v-18.49h20v18.49h24.86l83.89-83.89v-14.11h20v22.4l-95.61,95.61h-118l-83.07,83.07-14.14-14.14Zm210.17-18.46h-89.42l-32.6,32.6-14.14-14.14,38.46-38.46h89.42l156.47-156.47,14.14,14.14-162.32,162.32Zm141.98,167.35l-14.14-14.14,42.55-42.55,14.14,14.14-42.55,42.55ZM589.41,94.61h272.14v20h-263.86l-31.07,31.07-14.14-14.14,36.93-36.93Zm46.62,84.66l-8.48,8.48v43.56h-20v-51.85l14.34-14.34,14.14,14.14Zm-77.41,73.77l52.32,52.32h39.75l49.98,49.98v120.27h-20v-111.98l-38.27-38.27h-39.75l-58.18-58.18,14.14-14.14Zm68.93,343.82h-20v-44.6h-38.93l-19.07,19.07v25.53h-20v-33.81l30.79-30.79h47.21v-18.14h20v82.74Z"/>
      <polygon class="cls-4" points="1013.79 273.77 1035.1 252.47 1123.03 252.47 1140.11 262.94 1098.68 237.53 924 237.53 1013.79 273.77"/>
      <path class="cls-4" d="M1033.94,281.91l401.06,161.9-279.36-171.34h-112.26l-9.44,9.44Zm107.87,22.46l66.02,.12,32.7,20.06-98.75-.17,.04-20Z"/>
      <polygon class="cls-1" points="306.69 386.11 402.3 290.5 402.3 268.11 382.3 268.11 382.3 282.22 298.41 366.11 273.55 366.11 273.55 376.11 253.55 376.11 253.55 366.11 180.41 366.11 91.48 455.04 105.62 469.18 188.69 386.11 306.69 386.11"/>
      <polygon class="cls-1" points="597.69 114.61 861.55 114.61 861.55 94.61 589.41 94.61 552.48 131.54 566.62 145.68 597.69 114.61"/>
      <polygon class="cls-1" points="642.41 325.36 680.68 363.63 680.68 475.61 700.68 475.61 700.68 355.34 650.69 305.36 610.94 305.36 558.62 253.04 544.48 267.18 602.66 325.36 642.41 325.36"/>
      <polygon class="cls-1" points="607.55 532.25 617.55 532.25 617.55 552.25 607.55 552.25 607.55 596.86 627.55 596.86 627.55 514.11 607.55 514.11 607.55 532.25"/>
      <polygon class="cls-1" points="617.55 532.25 607.55 532.25 560.34 532.25 529.55 563.04 529.55 596.86 549.55 596.86 549.55 571.33 568.62 552.25 607.55 552.25 617.55 552.25 617.55 532.25"/>
      <rect class="cls-1" x="680.68" y="514.11" width="20" height="152.71"/>
      <rect class="cls-1" x="427.74" y="565.58" width="60.17" height="20" transform="translate(-272.9 492.29) rotate(-45)"/>
      <polygon class="cls-1" points="449.83 260.11 293.36 416.58 203.94 416.58 165.48 455.04 179.62 469.18 212.22 436.58 301.65 436.58 463.97 274.26 449.83 260.11"/>
      <polygon class="cls-1" points="607.55 231.32 627.55 231.32 627.55 187.75 636.03 179.27 621.89 165.13 607.55 179.47 607.55 231.32"/>
      <polygon class="cls-1" points="783.04 43.94 765.51 33.19 745.91 52.79 649.33 52.79 619.66 70.99 616.72 72.79 754.19 72.79 783.04 43.94"/>
      <polygon class="cls-1" points="472.09 161.5 406.67 201.62 384.04 224.25 398.18 238.39 455.08 181.5 486.79 181.5 515.04 153.24 515.04 135.15 488.68 151.32 478.5 161.5 472.09 161.5"/>
      <polygon class="cls-1" points="720.55 260.11 723.47 260.11 723.46 240.11 720.55 240.11 720.55 260.11"/>
      <polygon class="cls-1" points="859.58 211.52 879.73 219.65 901.4 197.99 1034.2 197.99 1001.6 177.99 893.11 177.99 859.58 211.52"/>
      <polygon class="cls-1" points="913.41 217.53 902.21 228.73 924 237.53 1098.68 237.53 1078.31 225.04 1066.07 217.53 913.41 217.53"/>
      <polygon class="cls-1" points="292.55 524.61 292.55 560.34 312.55 568.65 312.55 524.61 292.55 524.61"/>
      <polygon class="cls-1" points="723.75 666.82 700.68 666.82 680.68 666.82 549.05 666.82 597.22 686.82 723.76 686.82 723.75 666.82"/>
      <polygon class="cls-1" points="1207.84 304.48 1141.82 304.36 1141.78 324.36 1240.54 324.53 1207.84 304.48"/>
      <polygon class="cls-1" points="1035.1 252.47 1013.79 273.77 1033.94 281.91 1043.39 272.47 1155.64 272.47 1140.11 262.94 1123.03 252.47 1035.1 252.47"/>
      <polygon class="cls-1" points="273.55 376.11 273.55 366.11 273.55 347.63 253.55 347.63 253.55 366.11 253.55 376.11 273.55 376.11"/>
    </g>
    <g id="White_Circles" data-name="White Circles">
      <path class="cls-4" d="M1136.55,314.11c0-5.52-4.48-10-10-10s-10,4.48-10,10c0,.4,.03,.79,.07,1.17l16.26,6.56c2.24-1.83,3.66-4.62,3.66-7.73Z"/>
      <path class="cls-4" d="M720.55,145.11c-5.52,0-10,4.48-10,10s4.48,10,10,10c.99,0,1.95-.15,2.86-.42v-8.14s6.31,2.55,6.31,2.55c.53-1.22,.83-2.57,.83-3.99,0-5.52-4.48-10-10-10Z"/>
      <path class="cls-4" d="M88.55,462.11c-5.32,0-9.66,4.16-9.97,9.41l17.43,7.23c1.58-1.77,2.54-4.09,2.54-6.65,0-5.52-4.48-10-10-10Z"/>
      <circle class="cls-4" cx="701.55" cy="250.11" r="10"/>
      <path class="cls-4" d="M426.55,607.11c-3.79,0-7.08,2.11-8.78,5.21l18.37,7.62c.27-.9,.41-1.85,.41-2.84,0-5.52-4.48-10-10-10Z"/>
      <circle class="cls-4" cx="559.55" cy="155.11" r="10"/>
      <circle class="cls-4" cx="541.55" cy="250.11" r="10"/>
      <circle class="cls-4" cx="461.55" cy="250.11" r="10"/>
      <circle class="cls-4" cx="302.55" cy="501.11" r="10"/>
      <circle class="cls-4" cx="539.55" cy="617.11" r="10"/>
      <circle class="cls-4" cx="391.55" cy="250.11" r="10"/>
      <path class="cls-4" d="M88.55,443.61c15.74,0,28.5,12.76,28.5,28.5,0,5.04-1.31,9.78-3.61,13.88l287.21,119.22c4.51-9.8,14.41-16.61,25.9-16.61,15.74,0,28.5,12.76,28.5,28.5,0,3.5-.63,6.85-1.79,9.95l236.04,97.98c4.41-2.8,9.64-4.43,15.25-4.43,7.42,0,14.17,2.84,19.24,7.48l-.32-459.78c-5.23,6.29-13.11,10.3-21.93,10.3-15.74,0-28.5-12.76-28.5-28.5s12.76-28.5,28.5-28.5c8.8,0,16.67,3.99,21.9,10.27l-.03-48.41c-.94,.09-1.9,.14-2.87,.14-15.74,0-28.5-12.76-28.5-28.5s12.76-28.5,28.5-28.5,28.5,12.76,28.5,28.5c0,3.87-.77,7.55-2.17,10.92l351.82,142.02c2.78-12.83,14.19-22.44,27.85-22.44,15.74,0,28.5,12.76,28.5,28.5,0,5.49-1.56,10.62-4.25,14.97l284.2,114.72L859.91,91.08l14.79,9.07c-5.12,.43-9.15,4.72-9.15,9.96,0,5.52,4.48,10,10,10s10-4.48,10-10c0-1.33-.26-2.59-.73-3.75l18.25,11.19c-3.27,12.13-14.35,21.06-27.51,21.06-15.74,0-28.5-12.76-28.5-28.5,0-8.39,3.63-15.93,9.4-21.15L723.4,7.36,11.8,443.8l49.35,20.48c3.4-11.93,14.38-20.67,27.4-20.67Zm603,24c15.74,0,28.5,12.76,28.5,28.5s-12.76,28.5-28.5,28.5-28.5-12.76-28.5-28.5,12.76-28.5,28.5-28.5Zm-55-341c15.74,0,28.5,12.76,28.5,28.5s-12.76,28.5-28.5,28.5-28.5-12.76-28.5-28.5,12.76-28.5,28.5-28.5Zm-19,95c15.74,0,28.5,12.76,28.5,28.5s-12.76,28.5-28.5,28.5-28.5-12.76-28.5-28.5,12.76-28.5,28.5-28.5Zm0,246c15.74,0,28.5,12.76,28.5,28.5s-12.76,28.5-28.5,28.5-28.5-12.76-28.5-28.5,12.76-28.5,28.5-28.5Zm0,121c15.74,0,28.5,12.76,28.5,28.5s-12.76,28.5-28.5,28.5-28.5-12.76-28.5-28.5,12.76-28.5,28.5-28.5Zm-58-462c15.74,0,28.5,12.76,28.5,28.5s-12.76,28.5-28.5,28.5-28.5-12.76-28.5-28.5,12.76-28.5,28.5-28.5Zm-18,95c15.74,0,28.5,12.76,28.5,28.5s-12.76,28.5-28.5,28.5-28.5-12.76-28.5-28.5,12.76-28.5,28.5-28.5Zm-2,367c15.74,0,28.5,12.76,28.5,28.5s-12.76,28.5-28.5,28.5-28.5-12.76-28.5-28.5,12.76-28.5,28.5-28.5Zm-78-367c15.74,0,28.5,12.76,28.5,28.5s-12.76,28.5-28.5,28.5-28.5-12.76-28.5-28.5,12.76-28.5,28.5-28.5Zm-70,0c15.74,0,28.5,12.76,28.5,28.5s-12.76,28.5-28.5,28.5-28.5-12.76-28.5-28.5,12.76-28.5,28.5-28.5Zm-60.5,279.5c0,15.74-12.76,28.5-28.5,28.5s-28.5-12.76-28.5-28.5,12.76-28.5,28.5-28.5,28.5,12.76,28.5,28.5Zm-67.5-199.5c15.74,0,28.5,12.76,28.5,28.5s-12.76,28.5-28.5,28.5-28.5-12.76-28.5-28.5,12.76-28.5,28.5-28.5Zm-101,142c15.74,0,28.5,12.76,28.5,28.5s-12.76,28.5-28.5,28.5-28.5-12.76-28.5-28.5,12.76-28.5,28.5-28.5Z"/>
      <circle class="cls-4" cx="162.55" cy="472.11" r="10"/>
      <circle class="cls-4" cx="263.55" cy="330.11" r="10"/>
      <circle class="cls-4" cx="636.55" cy="155.11" r="10"/>
      <circle class="cls-4" cx="617.55" cy="496.11" r="10"/>
      <circle class="cls-4" cx="617.55" cy="617.11" r="10"/>
      <circle class="cls-4" cx="617.55" cy="250.11" r="10"/>
      <circle class="cls-4" cx="691.55" cy="496.11" r="10"/>
      <path class="cls-1" d="M263.55,358.61c15.74,0,28.5-12.76,28.5-28.5s-12.76-28.5-28.5-28.5-28.5,12.76-28.5,28.5,12.76,28.5,28.5,28.5Zm0-38.5c5.52,0,10,4.48,10,10s-4.48,10-10,10-10-4.48-10-10,4.48-10,10-10Z"/>
      <path class="cls-1" d="M461.55,278.61c15.74,0,28.5-12.76,28.5-28.5s-12.76-28.5-28.5-28.5-28.5,12.76-28.5,28.5,12.76,28.5,28.5,28.5Zm0-38.5c5.52,0,10,4.48,10,10s-4.48,10-10,10-10-4.48-10-10,4.48-10,10-10Z"/>
      <path class="cls-1" d="M391.55,278.61c15.74,0,28.5-12.76,28.5-28.5s-12.76-28.5-28.5-28.5-28.5,12.76-28.5,28.5,12.76,28.5,28.5,28.5Zm0-38.5c5.52,0,10,4.48,10,10s-4.48,10-10,10-10-4.48-10-10,4.48-10,10-10Z"/>
      <path class="cls-1" d="M541.55,278.61c15.74,0,28.5-12.76,28.5-28.5s-12.76-28.5-28.5-28.5-28.5,12.76-28.5,28.5,12.76,28.5,28.5,28.5Zm0-38.5c5.52,0,10,4.48,10,10s-4.48,10-10,10-10-4.48-10-10,4.48-10,10-10Z"/>
      <path class="cls-1" d="M617.55,278.61c15.74,0,28.5-12.76,28.5-28.5s-12.76-28.5-28.5-28.5-28.5,12.76-28.5,28.5,12.76,28.5,28.5,28.5Zm0-38.5c5.52,0,10,4.48,10,10s-4.48,10-10,10-10-4.48-10-10,4.48-10,10-10Z"/>
      <path class="cls-1" d="M559.55,183.61c15.74,0,28.5-12.76,28.5-28.5s-12.76-28.5-28.5-28.5-28.5,12.76-28.5,28.5,12.76,28.5,28.5,28.5Zm0-38.5c5.52,0,10,4.48,10,10s-4.48,10-10,10-10-4.48-10-10,4.48-10,10-10Z"/>
      <path class="cls-1" d="M636.55,183.61c15.74,0,28.5-12.76,28.5-28.5s-12.76-28.5-28.5-28.5-28.5,12.76-28.5,28.5,12.76,28.5,28.5,28.5Zm0-38.5c5.52,0,10,4.48,10,10s-4.48,10-10,10-10-4.48-10-10,4.48-10,10-10Z"/>
      <path class="cls-1" d="M720.55,126.61c-15.74,0-28.5,12.76-28.5,28.5s12.76,28.5,28.5,28.5c.97,0,1.92-.05,2.87-.14v-18.78c-.92,.27-1.88,.42-2.87,.42-5.52,0-10-4.48-10-10s4.48-10,10-10,10,4.48,10,10c0,1.42-.3,2.77-.83,3.99l17.16,6.93c1.4-3.36,2.17-7.05,2.17-10.92,0-15.74-12.76-28.5-28.5-28.5Z"/>
      <path class="cls-1" d="M162.55,500.61c15.74,0,28.5-12.76,28.5-28.5s-12.76-28.5-28.5-28.5-28.5,12.76-28.5,28.5,12.76,28.5,28.5,28.5Zm0-38.5c5.52,0,10,4.48,10,10s-4.48,10-10,10-10-4.48-10-10,4.48-10,10-10Z"/>
      <path class="cls-1" d="M274.05,501.11c0,15.74,12.76,28.5,28.5,28.5s28.5-12.76,28.5-28.5-12.76-28.5-28.5-28.5-28.5,12.76-28.5,28.5Zm28.5-10c5.52,0,10,4.48,10,10s-4.48,10-10,10-10-4.48-10-10,4.48-10,10-10Z"/>
      <path class="cls-1" d="M426.55,588.61c-11.49,0-21.39,6.81-25.9,16.61l17.12,7.11c1.7-3.11,4.99-5.21,8.78-5.21,5.52,0,10,4.48,10,10,0,.99-.15,1.94-.41,2.84l17.13,7.11c1.15-3.1,1.79-6.45,1.79-9.95,0-15.74-12.76-28.5-28.5-28.5Z"/>
      <path class="cls-1" d="M539.55,645.61c15.74,0,28.5-12.76,28.5-28.5s-12.76-28.5-28.5-28.5-28.5,12.76-28.5,28.5,12.76,28.5,28.5,28.5Zm0-38.5c5.52,0,10,4.48,10,10s-4.48,10-10,10-10-4.48-10-10,4.48-10,10-10Z"/>
      <path class="cls-1" d="M617.55,645.61c15.74,0,28.5-12.76,28.5-28.5s-12.76-28.5-28.5-28.5-28.5,12.76-28.5,28.5,12.76,28.5,28.5,28.5Zm0-38.5c5.52,0,10,4.48,10,10s-4.48,10-10,10-10-4.48-10-10,4.48-10,10-10Z"/>
      <path class="cls-1" d="M617.55,524.61c15.74,0,28.5-12.76,28.5-28.5s-12.76-28.5-28.5-28.5-28.5,12.76-28.5,28.5,12.76,28.5,28.5,28.5Zm0-38.5c5.52,0,10,4.48,10,10s-4.48,10-10,10-10-4.48-10-10,4.48-10,10-10Z"/>
      <path class="cls-1" d="M691.55,524.61c15.74,0,28.5-12.76,28.5-28.5s-12.76-28.5-28.5-28.5-28.5,12.76-28.5,28.5,12.76,28.5,28.5,28.5Zm0-38.5c5.52,0,10,4.48,10,10s-4.48,10-10,10-10-4.48-10-10,4.48-10,10-10Z"/>
      <path class="cls-1" d="M701.55,221.61c-15.74,0-28.5,12.76-28.5,28.5s12.76,28.5,28.5,28.5c8.82,0,16.7-4.01,21.93-10.3l-.03-36.44c-5.23-6.27-13.1-10.27-21.9-10.27Zm0,38.5c-5.52,0-10-4.48-10-10s4.48-10,10-10,10,4.48,10,10-4.48,10-10,10Z"/>
      <path class="cls-1" d="M689.3,725.04l34.5,14.32v-11.27c-5.08-4.64-11.83-7.48-19.25-7.48-5.61,0-10.84,1.63-15.25,4.43Z"/>
      <path class="cls-1" d="M1126.55,285.61c-13.66,0-25.07,9.61-27.85,22.44l17.92,7.23c-.04-.38-.07-.77-.07-1.17,0-5.52,4.48-10,10-10s10,4.48,10,10c0,3.12-1.43,5.9-3.66,7.73l17.92,7.23c2.69-4.35,4.25-9.48,4.25-14.97,0-15.74-12.76-28.5-28.5-28.5Z"/>
      <path class="cls-1" d="M847.05,110.11c0,15.74,12.76,28.5,28.5,28.5,13.17,0,24.24-8.93,27.51-21.06l-18.25-11.19c.47,1.16,.73,2.42,.73,3.75,0,5.52-4.48,10-10,10s-10-4.48-10-10c0-5.23,4.02-9.52,9.15-9.96l-14.79-9.07-3.46-2.12c-5.77,5.22-9.4,12.76-9.4,21.15Z"/>
      <path class="cls-1" d="M88.55,443.61c-13.03,0-24,8.74-27.4,20.67l17.43,7.24c.31-5.25,4.65-9.41,9.97-9.41s10,4.48,10,10c0,2.55-.97,4.88-2.54,6.65l17.43,7.24c2.3-4.11,3.61-8.84,3.61-13.88,0-15.74-12.76-28.5-28.5-28.5Z"/>
    </g>
    <g id="Black_Lines" data-name="Black Lines">
      <polygon class="cls-4" points="549.05 666.82 312.55 568.65 312.55 628.26 293.9 616.82 398.29 680.84 375.42 666.82 549.05 666.82"/>
      <polygon class="cls-4" points="11.8 443.8 292.55 615.99 292.55 560.34 11.8 443.8"/>
      <path class="cls-4" d="M1053.24,677.94l-63.21-63.21h-66.62l-89.17-89.17v-74.18l112.11-112.11v-19.16h20v27.45l-112.11,112.11v57.61l77.45,77.45h66.62l72.46,72.46,26.56-16.29-10.22,6.27-45.91-45.91v-40.93l133.28-133.28,14.14,14.14-127.42,127.42v24.36l43.45,43.45,330.36-202.61-401.06-161.9-29.71,29.71h-30.25v-20h21.97l17.84-17.84-89.79-36.25h-2.31l-137.34,137.34v117.1l131.49,131.49h62.29l62.32,62.33-17.53,10.75-53.08-53.08h-62.29l-143.21-143.21v-133.67l137.85-137.85-22.48-9.07-40.46,40.46h-115.8l.28,406.71h64.24l60.64,60.64-14.14,14.14-54.78-54.78h-55.94v16h27.22l24.64,24.64-14.14,14.14-18.78-18.78h-18.91v16.54s-126.56-52.54-126.56-52.54h-189.19l209.52,128.5v-45.19h20v12.7h19.14l30.79-30.79,14.14,14.14-36.65,36.65h-27.42v24.76l85.85,52.65,343.5-210.67-13.66,8.38Zm98.63-60.49l-20,12.27v-87.47h20v75.2Zm139-193.34h32.63l54.59,54.6-17.53,10.75-45.35-45.35h-24.34v-20Zm-89.32,162.87l-20,12.27v-74.64h20v62.37Z"/>
      <polygon class="cls-4" points="859.58 211.52 723.4 156.55 723.46 240.11 830.99 240.11 859.58 211.52"/>
      <polygon points="761.48 741.6 775.62 727.46 750.99 702.82 723.77 702.82 723.79 722.82 742.7 722.82 761.48 741.6"/>
      <polygon points="664.97 802.83 701.62 766.18 687.48 752.04 656.69 782.83 637.55 782.83 637.55 802.83 664.97 802.83"/>
      <polygon points="931.69 594.73 854.24 517.28 854.24 459.67 966.35 347.56 966.35 320.11 946.35 320.11 946.35 339.27 834.24 451.39 834.24 525.56 923.41 614.73 990.03 614.73 1053.24 677.94 1066.9 669.57 1070.77 667.19 998.31 594.73 931.69 594.73"/>
      <polygon points="879.73 219.65 859.58 211.52 830.99 240.11 723.46 240.11 723.47 260.11 839.27 260.11 879.73 219.65"/>
      <polygon points="764.35 500.25 907.56 643.46 969.84 643.46 1022.92 696.54 1040.45 685.79 978.13 623.46 915.84 623.46 784.35 491.97 784.35 374.87 921.69 237.53 924 237.53 902.21 228.73 764.35 366.58 764.35 500.25"/>
      <polygon points="312.55 568.65 292.55 560.34 292.55 615.99 293.9 616.82 312.55 628.26 312.55 568.65"/>
      <polygon points="549.05 666.82 375.42 666.82 398.29 680.84 408.03 686.82 597.22 686.82 549.05 666.82"/>
      <polygon points="834.48 741.6 848.62 727.46 787.99 666.82 723.75 666.82 723.76 686.82 779.7 686.82 834.48 741.6"/>
      <polygon points="973.99 291.61 973.99 311.61 1004.24 311.61 1033.94 281.91 1013.79 273.77 995.95 291.61 973.99 291.61"/>
      <polygon points="637.55 782.83 637.55 770.13 617.55 770.13 617.55 815.32 637.55 827.59 637.55 802.83 637.55 782.83"/>
      <polygon points="1061.2 578.61 1188.62 451.18 1174.48 437.04 1041.2 570.32 1041.2 611.25 1087.11 657.17 1097.33 650.9 1104.64 646.42 1061.2 602.97 1061.2 578.61"/>
      <polygon points="1131.87 629.72 1151.87 617.45 1151.87 542.25 1131.87 542.25 1131.87 629.72"/>
      <polygon points="1181.55 599.25 1201.55 586.98 1201.55 524.61 1181.55 524.61 1181.55 599.25"/>
      <polygon points="1360.56 489.46 1378.09 478.71 1323.49 424.11 1290.87 424.11 1290.87 444.11 1315.21 444.11 1360.56 489.46"/>
    </g>
    <g id="Black_Circles" data-name="Black Circles">
      <circle class="cls-4" cx="778.55" cy="834.11" r="10"/>
      <circle class="cls-4" cx="927.55" cy="682.11" r="10"/>
      <circle class="cls-4" cx="851.55" cy="749.11" r="10"/>
      <circle class="cls-4" cx="704.55" cy="834.11" r="10"/>
      <path class="cls-4" d="M761.44,856.91c-6.92-5.2-11.39-13.47-11.39-22.8,0-15.74,12.76-28.5,28.5-28.5,14.06,0,25.74,10.19,28.07,23.59l628.38-385.4-284.2-114.72c-5.02,8.12-14,13.53-24.25,13.53-15.74,0-28.5-12.76-28.5-28.5,0-2.08,.23-4.11,.65-6.06l-351.82-142.02c-3.93,9.48-12.84,16.38-23.46,17.44l.03,48.41c4.12,4.94,6.6,11.3,6.6,18.23s-2.47,13.27-6.57,18.2l.32,459.78c5.69,5.21,9.26,12.7,9.26,21.02,0,15.74-12.76,28.5-28.5,28.5s-28.5-12.76-28.5-28.5c0-10.13,5.29-19.02,13.25-24.07l-236.04-97.98c-4.04,10.83-14.47,18.55-26.71,18.55-15.74,0-28.5-12.76-28.5-28.5,0-4.25,.94-8.27,2.6-11.89L113.44,485.99c-2.97,5.3-7.58,9.56-13.15,12.08l-23.92-14.67,647.03,396.84,54.98-33.72-16.94,10.39Zm511.11-451.3c15.74,0,28.5,12.76,28.5,28.5s-12.76,28.5-28.5,28.5-28.5-12.76-28.5-28.5,12.76-28.5,28.5-28.5Zm-81,0c15.74,0,28.5,12.76,28.5,28.5s-12.76,28.5-28.5,28.5-28.5-12.76-28.5-28.5,12.76-28.5,28.5-28.5Zm0,70c15.74,0,28.5,12.76,28.5,28.5s-12.76,28.5-28.5,28.5-28.5-12.76-28.5-28.5,12.76-28.5,28.5-28.5Zm-236-200c15.74,0,28.5,12.76,28.5,28.5s-12.76,28.5-28.5,28.5-28.5-12.76-28.5-28.5,12.76-28.5,28.5-28.5Zm-28,378c15.74,0,28.5,12.76,28.5,28.5s-12.76,28.5-28.5,28.5-28.5-12.76-28.5-28.5,12.76-28.5,28.5-28.5Zm-76,67c15.74,0,28.5,12.76,28.5,28.5s-12.76,28.5-28.5,28.5-28.5-12.76-28.5-28.5,12.76-28.5,28.5-28.5Zm-73,0c15.74,0,28.5,12.76,28.5,28.5s-12.76,28.5-28.5,28.5-28.5-12.76-28.5-28.5,12.76-28.5,28.5-28.5Zm-151,57c-15.74,0-28.5-12.76-28.5-28.5s12.76-28.5,28.5-28.5,28.5,12.76,28.5,28.5-12.76,28.5-28.5,28.5Zm77,85c-15.74,0-28.5-12.76-28.5-28.5s12.76-28.5,28.5-28.5,28.5,12.76,28.5,28.5-12.76,28.5-28.5,28.5Z"/>
      <circle class="cls-4" cx="778.55" cy="749.11" r="10"/>
      <circle class="cls-4" cx="627.55" cy="749.11" r="10"/>
      <path class="cls-4" d="M729.72,159.1l-6.32-2.55v8.14c2.84-.84,5.15-2.91,6.32-5.59Z"/>
      <path class="cls-4" d="M426.55,627.11c4.54,0,8.36-3.02,9.59-7.16l-18.37-7.62c-.78,1.42-1.22,3.05-1.22,4.79,0,5.52,4.48,10,10,10Z"/>
      <circle class="cls-4" cx="704.55" cy="749.11" r="10"/>
      <circle class="cls-4" cx="1191.55" cy="434.11" r="10"/>
      <path class="cls-4" d="M61.15,464.29l-49.35-20.48,48.28,29.61c-.02-.43-.03-.87-.03-1.3,0-2.72,.39-5.34,1.1-7.83Z"/>
      <circle class="cls-4" cx="955.55" cy="304.11" r="10"/>
      <path class="cls-4" d="M88.55,482.11c2.97,0,5.63-1.3,7.46-3.35l-17.43-7.23c-.01,.2-.03,.39-.03,.59,0,5.52,4.48,10,10,10Z"/>
      <path class="cls-4" d="M1126.55,324.11c2.41,0,4.61-.85,6.34-2.27l-16.26-6.56c.58,4.97,4.8,8.83,9.93,8.83Z"/>
      <circle class="cls-4" cx="1272.55" cy="434.11" r="10"/>
      <circle class="cls-4" cx="1191.55" cy="504.11" r="10"/>
      <path d="M746.88,166.03l-17.16-6.93c-1.17,2.68-3.48,4.75-6.31,5.59v18.78c10.64-1.06,19.54-7.96,23.48-17.44Z"/>
      <path d="M426.55,645.61c12.24,0,22.68-7.72,26.71-18.55l-17.13-7.11c-1.22,4.14-5.05,7.16-9.59,7.16-5.52,0-10-4.48-10-10,0-1.73,.44-3.37,1.22-4.79l-17.12-7.11c-1.67,3.62-2.6,7.65-2.6,11.89,0,15.74,12.76,28.5,28.5,28.5Z"/>
      <path d="M723.45,231.88l.03,36.44c4.1-4.94,6.57-11.28,6.57-18.2s-2.48-13.29-6.6-18.23Z"/>
      <path d="M627.55,720.61c-15.74,0-28.5,12.76-28.5,28.5s12.76,28.5,28.5,28.5,28.5-12.76,28.5-28.5-12.76-28.5-28.5-28.5Zm0,38.5c-5.52,0-10-4.48-10-10s4.48-10,10-10,10,4.48,10,10-4.48,10-10,10Z"/>
      <path d="M676.05,749.11c0,15.74,12.76,28.5,28.5,28.5s28.5-12.76,28.5-28.5c0-8.32-3.57-15.81-9.26-21.02v11.27s-34.49-14.32-34.49-14.32c-7.96,5.05-13.25,13.94-13.25,24.07Zm28.5-10c5.52,0,10,4.48,10,10s-4.48,10-10,10-10-4.48-10-10,4.48-10,10-10Z"/>
      <path d="M778.55,777.61c15.74,0,28.5-12.76,28.5-28.5s-12.76-28.5-28.5-28.5-28.5,12.76-28.5,28.5,12.76,28.5,28.5,28.5Zm0-38.5c5.52,0,10,4.48,10,10s-4.48,10-10,10-10-4.48-10-10,4.48-10,10-10Z"/>
      <path d="M851.55,777.61c15.74,0,28.5-12.76,28.5-28.5s-12.76-28.5-28.5-28.5-28.5,12.76-28.5,28.5,12.76,28.5,28.5,28.5Zm0-38.5c5.52,0,10,4.48,10,10s-4.48,10-10,10-10-4.48-10-10,4.48-10,10-10Z"/>
      <path d="M704.55,805.61c-15.74,0-28.5,12.76-28.5,28.5s12.76,28.5,28.5,28.5,28.5-12.76,28.5-28.5-12.76-28.5-28.5-28.5Zm0,38.5c-5.52,0-10-4.48-10-10s4.48-10,10-10,10,4.48,10,10-4.48,10-10,10Z"/>
      <path d="M927.55,710.61c15.74,0,28.5-12.76,28.5-28.5s-12.76-28.5-28.5-28.5-28.5,12.76-28.5,28.5,12.76,28.5,28.5,28.5Zm0-38.5c5.52,0,10,4.48,10,10s-4.48,10-10,10-10-4.48-10-10,4.48-10,10-10Z"/>
      <path d="M1191.55,532.61c15.74,0,28.5-12.76,28.5-28.5s-12.76-28.5-28.5-28.5-28.5,12.76-28.5,28.5,12.76,28.5,28.5,28.5Zm0-38.5c5.52,0,10,4.48,10,10s-4.48,10-10,10-10-4.48-10-10,4.48-10,10-10Z"/>
      <path d="M1191.55,462.61c15.74,0,28.5-12.76,28.5-28.5s-12.76-28.5-28.5-28.5-28.5,12.76-28.5,28.5,12.76,28.5,28.5,28.5Zm0-38.5c5.52,0,10,4.48,10,10s-4.48,10-10,10-10-4.48-10-10,4.48-10,10-10Z"/>
      <path d="M1272.55,462.61c15.74,0,28.5-12.76,28.5-28.5s-12.76-28.5-28.5-28.5-28.5,12.76-28.5,28.5,12.76,28.5,28.5,28.5Zm0-38.5c5.52,0,10,4.48,10,10s-4.48,10-10,10-10-4.48-10-10,4.48-10,10-10Z"/>
      <path d="M1126.55,342.61c10.25,0,19.23-5.41,24.25-13.53l-17.92-7.23c-1.73,1.41-3.93,2.27-6.34,2.27-5.13,0-9.35-3.86-9.93-8.83l-17.92-7.23c-.42,1.95-.65,3.98-.65,6.06,0,15.74,12.76,28.5,28.5,28.5Z"/>
      <path d="M955.55,332.61c15.74,0,28.5-12.76,28.5-28.5s-12.76-28.5-28.5-28.5-28.5,12.76-28.5,28.5,12.76,28.5,28.5,28.5Zm0-38.5c5.52,0,10,4.48,10,10s-4.48,10-10,10-10-4.48-10-10,4.48-10,10-10Z"/>
      <path d="M113.44,485.99l-17.43-7.24c-1.83,2.05-4.49,3.35-7.46,3.35-5.52,0-10-4.48-10-10,0-.2,.02-.39,.03-.59l-17.43-7.24c-.71,2.49-1.1,5.11-1.1,7.83,0,.44,.01,.87,.03,1.3l16.29,9.99,23.92,14.67c5.57-2.52,10.18-6.78,13.15-12.08Z"/>
      <path d="M778.55,805.61c-15.74,0-28.5,12.76-28.5,28.5,0,9.32,4.48,17.6,11.39,22.8l16.94-10.39,28.24-17.32c-2.33-13.4-14.01-23.59-28.07-23.59Zm0,38.5c-5.52,0-10-4.48-10-10s4.48-10,10-10,10,4.48,10,10-4.48,10-10,10Z"/>
    </g>
    <path class="cls-3" d="M926.63,553.65c-18.4,8.91-42.42,13.36-72.07,13.36-38.67,0-69.08-11.37-91.23-34.1-22.15-22.73-33.22-53.03-33.22-90.88,0-40.31,12.45-73.01,37.35-98.09,24.9-25.08,57.22-37.62,96.94-37.62,24.61,0,45.35,3.11,62.23,9.32v54.67c-16.88-10.08-36.1-15.12-57.66-15.12-23.67,0-42.78,7.44-57.3,22.32-14.53,14.88-21.8,35.04-21.8,60.47s6.86,43.8,20.57,58.27c13.71,14.47,32.17,21.71,55.37,21.71s42.42-5.39,60.82-16.17v51.86Z"/>
    <path class="cls-3" d="M1176.35,562.62h-61.88l-17.93-56.07h-89.65l-17.75,56.07h-61.52l91.76-252.07h67.32l89.65,252.07Zm-92.81-99.67l-27.07-84.73c-1.99-6.33-3.4-13.89-4.22-22.68h-1.41c-.59,7.38-2.05,14.71-4.39,21.97l-27.42,85.43h64.51Z"/>
    <path class="cls-2" d="M501.3,577.41h-159.57V311.34h153.45v48.8h-93.52v59.19h87.02v48.61h-87.02v60.86h99.64v48.61Z"/>
    <path class="cls-2" d="M685.18,577.41h-158.46V311.34h59.93v217.46h98.53v48.61Z"/>
  </g>
</svg>